VIDEO INFO:

Format                           : Matroska
Format version                   : Version 2
File size                        : 4.23 GiB
Duration                         : 1h 42mn
Overall bit rate                 : 5 927 Kbps
Movie name                       : Fright Night (1985)
Encoded date                     : UTC 2011-08-13 21:25:53
Writing application              : mkvmerge v4.9.1 ('Ich will') gemaakt op Jul 11 2011 23:53:15
Writing library                  : libebml v1.2.1 + libmatroska v1.1.1

Video
ID                               : 1
Format                           : AVC
Format/Info                      : Advanced Video Codec
Format profile                   : High@L5.1
Format settings, CABAC           : Yes
Format settings, ReFrames        : 8 frames
Codec ID                         : V_MPEG4/ISO/AVC
Duration                         : 1h 42mn
Bit rate                         : 5 732 Kbps
Width                            : 1 280 pixels
Height                           : 544 pixels
Display aspect ratio             : 2.35:1
Frame rate                       : 25.000 fps
Color space                      : YUV
Chroma subsampling               : 4:2:0
Bit depth                        : 8 bits
Scan type                        : Progressive
Bits/(Pixel*Frame)               : 0.329
Stream size                      : 4.01 GiB (95%)
Title                            : Fright Night
Writing library                  : x264 core 57 svn-709C
Encoding settings                : cabac=1 / ref=5 / deblock=1:-3:-3 / analyse=0x3:0x133 / me=umh / fpel_cmp=sad / subme=7 / me-prepass=0 / brdo=1 / mixed_ref=1 / me_range=16 / chroma_me=1 / trellis=0 / 8x8dct=1 / cqm=2 / deadzone=6,6 / chroma_qp_offset=0 / threads=6 / nr=0 / decimate=1 / mbaff=0 / bframes=3 / b_pyramid=1 / b_adapt=1 / b_bias=0 / direct=1 / wpredb=1 / bime=1 / keyint=250 / keyint_min=25 / scenecut=40(pre) / rc=2pass / bitrate=5732 / ratetol=1.0 / rceq='blurCplx^(1-qComp)' / qcomp=0.60 / qpmin=6 / qpmax=51 / qpstep=4 / cplxblur=20.0 / qblur=0.5 / ip_ratio=1.40 / pb_ratio=1.30 / aq=1:0.5:17.0
Language                         : English

Audio
ID                               : 2
Format                           : AC-3
Format/Info                      : Audio Coding 3
Mode extension                   : CM (complete main)
Codec ID                         : A_AC3
Duration                         : 1h 42mn
Bit rate mode                    : Constant
Bit rate                         : 192 Kbps
Channel(s)                       : 2 channels
Channel positions                : Front: L R
Sampling rate                    : 48.0 KHz
Bit depth                        : 16 bits
Compression mode                 : Lossy
Stream size                      : 140 MiB (3%)
Title                            : Original AC3 2.0 192 kbps
Language                         : English

Text
ID                               : 3
Format                           : UTF-8
Codec ID                         : S_TEXT/UTF8
Codec ID/Info                    : UTF-8 Plain Text
Language                         : Dutch

-------------------------------------

Verenigde Staten
Komedie / Horror
106 minuten

geregisseerd door Tom Holland
met Chris Sarandon, Roddy McDowall en William Ragsdale

Charley Webster die veel van horror films houdt krijgt nieuwe buren. Als hij de nieuwe buren gaat bespieden komt hij erachter dat het vampieren zijn. De enige persoon die Charley kan helpen is de tweederangs acteur Peter Vincent. Samen gaan ze de strijd aan met de vampieren.

-Ondertiteling (nederlands) met de mogelijkheid deze aan/uit te zetten.